# 3ds Max Wavefront OBJ Exporter v0.97b - (c)2007 guruware
# 创建的文件:17.01.2017 17:21:47

mtllib aaa.mtl

#
# object Box001
#

v  36.9124 42.3901 -4.6867
v  36.9124 48.2176 -4.6867
v  36.9124 48.2176 3.0140
v  36.9124 42.3901 3.0140
v  3.1286 -0.4276 -6.4186
v  7.9939 -0.4276 -6.4186
v  7.9939 -0.4276 4.7459
v  3.1286 -0.4276 4.7459
v  11.4668 19.9578 -9.8915
v  11.4668 53.4224 -9.8915
v  11.4668 48.2176 -4.6867
v  11.4668 42.3901 -4.6867
v  11.4668 53.4224 8.2188
v  11.4668 48.2176 3.0140
v  11.4668 19.9578 8.2188
v  11.4668 42.3901 3.0140
v  14.7921 48.2176 -4.6867
v  14.7921 42.3901 -4.6867
v  14.7921 48.2176 3.0140
v  14.7921 42.3901 3.0140
v  15.0812 48.2176 -4.6867
v  15.0812 42.3901 -4.6867
v  15.0812 48.2176 3.0140
v  15.0812 42.3901 3.0140
v  15.3704 48.2176 -4.6867
v  15.3704 42.3901 -4.6867
v  15.3704 48.2176 3.0140
v  15.3704 42.3901 3.0140
v  15.6595 48.2176 -4.6867
v  15.6595 42.3901 -4.6867
v  15.6595 48.2176 3.0140
v  15.6595 42.3901 3.0140
v  25.3462 48.2176 -4.6867
v  25.3462 42.3901 -4.6867
v  25.3462 48.2176 3.0140
v  25.3462 42.3901 3.0140
v  26.3582 48.2176 -4.6867
v  26.3582 42.3901 -4.6867
v  26.3582 48.2176 3.0140
v  26.3582 42.3901 3.0140
v  26.7920 48.2176 -4.6867
v  26.7920 42.3901 -4.6867
v  26.7920 48.2176 3.0140
v  26.7920 42.3901 3.0140
v  27.2257 48.2176 -4.6867
v  27.2257 42.3901 -4.6867
v  27.2257 48.2176 3.0140
v  27.2257 42.3901 3.0140
v  -0.3442 19.9578 -9.8915
v  7.9939 19.9578 -6.4186
v  3.1286 19.9578 -6.4186
v  7.9939 19.9578 4.7459
v  -0.3442 19.9578 8.2188
v  3.1286 19.9578 4.7459
v  7.9939 16.6325 -6.4186
v  3.1286 16.6325 -6.4186
v  7.9939 16.6325 4.7459
v  3.1286 16.6325 4.7459
v  7.9939 16.3434 -6.4186
v  3.1286 16.3434 -6.4186
v  7.9939 16.3434 4.7459
v  3.1286 16.3434 4.7459
v  7.9939 15.9096 -6.4186
v  3.1286 15.9096 -6.4186
v  7.9939 15.9096 4.7459
v  3.1286 15.9096 4.7459
v  7.9939 15.4759 -6.4186
v  3.1286 15.4759 -6.4186
v  7.9939 15.4759 4.7459
v  3.1286 15.4759 4.7459
v  7.9939 7.5242 -6.4186
v  3.1286 7.5242 -6.4186
v  7.9939 7.5242 4.7459
v  3.1286 7.5242 4.7459
v  7.9939 7.0904 -6.4186
v  3.1286 7.0904 -6.4186
v  7.9939 7.0904 4.7459
v  3.1286 7.0904 4.7459
v  7.9939 6.6567 -6.4186
v  3.1286 6.6567 -6.4186
v  7.9939 6.6567 4.7459
v  3.1286 6.6567 4.7459
v  7.9939 6.2230 -6.4186
v  3.1286 6.2230 -6.4186
v  7.9939 6.2230 4.7459
v  3.1286 6.2230 4.7459
v  -37.6008 42.3901 -4.6867
v  -37.6008 42.3901 3.0140
v  -37.6008 48.2176 3.0140
v  -37.6008 48.2176 -4.6867
v  2.5120 65.7114 1.9999
v  2.5120 65.7114 -3.6726
v  -2.5120 65.7114 -3.6726
v  -2.5120 65.7114 1.9999
v  -3.8171 -0.4276 -6.4186
v  -3.8171 -0.4276 4.7459
v  -8.6824 -0.4276 4.7459
v  -8.6824 -0.4276 -6.4186
v  -12.1553 19.9578 -9.8915
v  -12.1553 42.3901 -4.6867
v  -12.1553 48.2176 -4.6867
v  -12.1553 53.4224 -9.8915
v  -12.1553 48.2176 3.0140
v  -12.1553 53.4224 8.2188
v  -12.1553 42.3901 3.0140
v  -12.1553 19.9578 8.2188
v  -15.4805 42.3901 -4.6867
v  -15.4805 48.2176 -4.6867
v  -15.4805 48.2176 3.0140
v  -15.4805 42.3901 3.0140
v  -15.7697 42.3901 -4.6867
v  -15.7697 48.2176 -4.6867
v  -15.7697 48.2176 3.0140
v  -15.7697 42.3901 3.0140
v  -16.0588 42.3901 -4.6867
v  -16.0588 48.2176 -4.6867
v  -16.0588 48.2176 3.0140
v  -16.0588 42.3901 3.0140
v  -16.3480 42.3901 -4.6867
v  -16.3480 48.2176 -4.6867
v  -16.3480 48.2176 3.0140
v  -16.3480 42.3901 3.0140
v  -26.0347 42.3901 -4.6867
v  -26.0347 48.2176 -4.6867
v  -26.0347 48.2176 3.0140
v  -26.0347 42.3901 3.0140
v  -27.0467 42.3901 -4.6867
v  -27.0467 48.2176 -4.6867
v  -27.0467 48.2176 3.0140
v  -27.0467 42.3901 3.0140
v  -27.4804 42.3901 -4.6867
v  -27.4804 48.2176 -4.6867
v  -27.4804 48.2176 3.0140
v  -27.4804 42.3901 3.0140
v  -27.9142 42.3901 -4.6867
v  -27.9142 48.2176 -4.6867
v  -27.9142 48.2176 3.0140
v  -27.9142 42.3901 3.0140
v  -3.8171 19.9578 -6.4186
v  -8.6824 19.9578 -6.4186
v  -8.6824 19.9578 4.7459
v  -3.8171 19.9578 4.7459
v  -3.8171 16.6325 -6.4186
v  -8.6824 16.6325 -6.4186
v  -8.6824 16.6325 4.7459
v  -3.8171 16.6325 4.7459
v  -3.8171 16.3434 -6.4186
v  -8.6824 16.3434 -6.4186
v  -8.6824 16.3434 4.7459
v  -3.8171 16.3434 4.7459
v  -3.8171 15.9096 -6.4186
v  -8.6824 15.9096 -6.4186
v  -8.6824 15.9096 4.7459
v  -3.8171 15.9096 4.7459
v  -3.8171 15.4759 -6.4186
v  -8.6824 15.4759 -6.4186
v  -8.6824 15.4759 4.7459
v  -3.8171 15.4759 4.7459
v  -3.8171 7.5242 -6.4186
v  -8.6824 7.5242 -6.4186
v  -8.6824 7.5242 4.7459
v  -3.8171 7.5242 4.7459
v  -3.8171 7.0904 -6.4186
v  -8.6824 7.0904 -6.4186
v  -8.6824 7.0904 4.7459
v  -3.8171 7.0904 4.7459
v  -3.8171 6.6567 -6.4186
v  -8.6824 6.6567 -6.4186
v  -8.6824 6.6567 4.7459
v  -3.8171 6.6567 4.7459
v  -3.8171 6.2230 -6.4186
v  -8.6824 6.2230 -6.4186
v  -8.6824 6.2230 4.7459
v  -3.8171 6.2230 4.7459
v  3.9370 53.4224 -4.4491
v  3.9370 53.4224 2.7764
v  -3.9370 53.4224 -4.4491
v  -3.9370 53.4224 2.7764
v  3.9370 55.0127 -4.4491
v  3.9370 55.0127 2.7764
v  -3.9370 55.0127 -4.4491
v  -3.9370 55.0127 2.7764
v  3.9370 55.4464 -4.4491
v  3.9370 55.4464 2.7764
v  -3.9370 55.4464 -4.4491
v  -3.9370 55.4464 2.7764
v  3.9370 56.0248 -4.4491
v  3.9370 56.0247 2.7764
v  -3.9370 56.0248 -4.4491
v  -3.9370 56.0247 2.7764
v  3.9370 56.3139 -4.4491
v  3.9370 56.3139 2.7764
v  -3.9370 56.3139 -4.4491
v  -3.9370 56.3139 2.7764
v  4.8045 57.7597 -5.3166
v  4.8045 57.7597 3.6439
v  -4.8045 57.7597 -5.3166
v  -4.8045 57.7597 3.6439
v  4.8045 65.7114 -5.3166
v  4.8045 65.7114 3.6439
v  -4.8045 65.7114 -5.3166
v  -4.8045 65.7114 3.6439
# 202 vertices

vn 1.0000 0.0000 -0.0000
vn 0.0000 -1.0000 -0.0000
vn 0.0000 0.0000 -1.0000
vn 0.0000 1.0000 0.0000
vn 0.0000 -0.0000 1.0000
vn -1.0000 0.0000 -0.0000
vn 0.0000 1.0000 -0.0000
vn -0.0000 1.0000 0.0000
vn 0.8575 -0.5145 -0.0000
vn 0.0000 -0.5145 -0.8575
vn -0.8575 -0.5145 -0.0000
vn 0.0000 -0.5145 0.8575
# 12 vertex normals

vt 0.9082 0.4481 0.0000
vt 0.9082 0.3844 0.0000
vt 0.9925 0.3844 0.0000
vt 0.9925 0.4481 0.0000
vt 0.3681 0.9995 0.0000
vt 0.3681 0.9463 0.0000
vt 0.4902 0.9463 0.0000
vt 0.4902 0.9995 0.0000
vt 0.3667 0.7193 0.0000
vt 0.0005 0.7193 0.0000
vt 0.0575 0.6624 0.0000
vt 0.1212 0.6624 0.0000
vt 0.0005 0.5211 0.0000
vt 0.0575 0.5781 0.0000
vt 0.3667 0.5211 0.0000
vt 0.1212 0.5781 0.0000
vt 0.6465 0.8160 0.0000
vt 0.6465 0.8797 0.0000
vt 0.6101 0.8797 0.0000
vt 0.6101 0.8160 0.0000
vt 0.3681 0.7289 0.0000
vt 0.3681 0.6447 0.0000
vt 0.4044 0.6447 0.0000
vt 0.4044 0.7289 0.0000
vt 0.9263 0.6447 0.0000
vt 0.9263 0.7084 0.0000
vt 0.8899 0.7084 0.0000
vt 0.8899 0.6447 0.0000
vt 0.8709 0.5211 0.0000
vt 0.8709 0.6054 0.0000
vt 0.8345 0.6054 0.0000
vt 0.8345 0.5211 0.0000
vt 0.6069 0.8797 0.0000
vt 0.6069 0.8160 0.0000
vt 0.4076 0.6447 0.0000
vt 0.4076 0.7289 0.0000
vt 0.8868 0.7084 0.0000
vt 0.8868 0.6447 0.0000
vt 0.8314 0.6054 0.0000
vt 0.8314 0.5211 0.0000
vt 0.6038 0.8797 0.0000
vt 0.6038 0.8160 0.0000
vt 0.4108 0.6447 0.0000
vt 0.4108 0.7289 0.0000
vt 0.8836 0.7084 0.0000
vt 0.8836 0.6447 0.0000
vt 0.8282 0.6054 0.0000
vt 0.8282 0.5211 0.0000
vt 0.6006 0.8797 0.0000
vt 0.6006 0.8160 0.0000
vt 0.4139 0.6447 0.0000
vt 0.4139 0.7289 0.0000
vt 0.8804 0.7084 0.0000
vt 0.8804 0.6447 0.0000
vt 0.8251 0.6054 0.0000
vt 0.8251 0.5211 0.0000
vt 0.4946 0.8797 0.0000
vt 0.4946 0.8160 0.0000
vt 0.5199 0.6447 0.0000
vt 0.5199 0.7289 0.0000
vt 0.7744 0.7084 0.0000
vt 0.7744 0.6447 0.0000
vt 0.7191 0.6054 0.0000
vt 0.7191 0.5211 0.0000
vt 0.4835 0.8797 0.0000
vt 0.4835 0.8160 0.0000
vt 0.5310 0.6447 0.0000
vt 0.5310 0.7289 0.0000
vt 0.7634 0.7084 0.0000
vt 0.7634 0.6447 0.0000
vt 0.7080 0.6054 0.0000
vt 0.7080 0.5211 0.0000
vt 0.4788 0.8797 0.0000
vt 0.4788 0.8160 0.0000
vt 0.5358 0.6447 0.0000
vt 0.5358 0.7289 0.0000
vt 0.7586 0.7084 0.0000
vt 0.7586 0.6447 0.0000
vt 0.7032 0.6054 0.0000
vt 0.7032 0.5211 0.0000
vt 0.4741 0.8797 0.0000
vt 0.4741 0.8160 0.0000
vt 0.5405 0.6447 0.0000
vt 0.5405 0.7289 0.0000
vt 0.7539 0.7084 0.0000
vt 0.7539 0.6447 0.0000
vt 0.6985 0.6054 0.0000
vt 0.6985 0.5211 0.0000
vt 0.3681 0.8797 0.0000
vt 0.3681 0.8160 0.0000
vt 0.6465 0.6447 0.0000
vt 0.6465 0.7289 0.0000
vt 0.6479 0.7084 0.0000
vt 0.6479 0.6447 0.0000
vt 0.5925 0.6054 0.0000
vt 0.5925 0.5211 0.0000
vt 0.4978 0.4590 0.0000
vt 0.3685 0.4590 0.0000
vt 0.4065 0.4210 0.0000
vt 0.4598 0.4210 0.0000
vt 0.3685 0.2608 0.0000
vt 0.4065 0.2988 0.0000
vt 0.4978 0.2608 0.0000
vt 0.4598 0.2988 0.0000
vt 0.3685 0.5136 0.0000
vt 0.3685 0.4604 0.0000
vt 0.4049 0.4604 0.0000
vt 0.4049 0.5136 0.0000
vt 0.3681 0.6433 0.0000
vt 0.3681 0.5211 0.0000
vt 0.4044 0.5211 0.0000
vt 0.4044 0.6433 0.0000
vt 0.9591 0.2000 0.0000
vt 0.9591 0.2533 0.0000
vt 0.9228 0.2533 0.0000
vt 0.9228 0.2000 0.0000
vt 0.2236 0.7207 0.0000
vt 0.2236 0.8428 0.0000
vt 0.1872 0.8428 0.0000
vt 0.1872 0.7207 0.0000
vt 0.4081 0.4604 0.0000
vt 0.4081 0.5136 0.0000
vt 0.4076 0.5211 0.0000
vt 0.4076 0.6433 0.0000
vt 0.9196 0.2533 0.0000
vt 0.9196 0.2000 0.0000
vt 0.1840 0.8428 0.0000
vt 0.1840 0.7207 0.0000
vt 0.4128 0.4604 0.0000
vt 0.4128 0.5136 0.0000
vt 0.4124 0.5211 0.0000
vt 0.4124 0.6433 0.0000
vt 0.9148 0.2533 0.0000
vt 0.9148 0.2000 0.0000
vt 0.1793 0.8428 0.0000
vt 0.1793 0.7207 0.0000
vt 0.4176 0.4604 0.0000
vt 0.4176 0.5136 0.0000
vt 0.4171 0.5211 0.0000
vt 0.4171 0.6433 0.0000
vt 0.9101 0.2533 0.0000
vt 0.9101 0.2000 0.0000
vt 0.1745 0.8428 0.0000
vt 0.1745 0.7207 0.0000
vt 0.5046 0.4604 0.0000
vt 0.5046 0.5136 0.0000
vt 0.5041 0.5211 0.0000
vt 0.5041 0.6433 0.0000
vt 0.8231 0.2533 0.0000
vt 0.8231 0.2000 0.0000
vt 0.0875 0.8428 0.0000
vt 0.0875 0.7207 0.0000
vt 0.5093 0.4604 0.0000
vt 0.5093 0.5136 0.0000
vt 0.5089 0.5211 0.0000
vt 0.5089 0.6433 0.0000
vt 0.8183 0.2533 0.0000
vt 0.8183 0.2000 0.0000
vt 0.0828 0.8428 0.0000
vt 0.0828 0.7207 0.0000
vt 0.5141 0.4604 0.0000
vt 0.5141 0.5136 0.0000
vt 0.5136 0.5211 0.0000
vt 0.5136 0.6433 0.0000
vt 0.8136 0.2533 0.0000
vt 0.8136 0.2000 0.0000
vt 0.0780 0.8428 0.0000
vt 0.0780 0.7207 0.0000
vt 0.5188 0.4604 0.0000
vt 0.5188 0.5136 0.0000
vt 0.5183 0.5211 0.0000
vt 0.5183 0.6433 0.0000
vt 0.8088 0.2533 0.0000
vt 0.8088 0.2000 0.0000
vt 0.0733 0.8428 0.0000
vt 0.0733 0.7207 0.0000
vt 0.5916 0.4604 0.0000
vt 0.5916 0.5136 0.0000
vt 0.5911 0.5211 0.0000
vt 0.5911 0.6433 0.0000
vt 0.7361 0.2533 0.0000
vt 0.7361 0.2000 0.0000
vt 0.0005 0.8428 0.0000
vt 0.0005 0.7207 0.0000
vt 0.7837 0.8811 0.0000
vt 0.8680 0.8811 0.0000
vt 0.8680 0.9449 0.0000
vt 0.7837 0.9449 0.0000
vt 0.9524 0.5391 0.0000
vt 0.9524 0.6012 0.0000
vt 0.8974 0.6012 0.0000
vt 0.8974 0.5391 0.0000
vt 0.2249 0.9437 0.0000
vt 0.3471 0.9437 0.0000
vt 0.3471 0.9969 0.0000
vt 0.2249 0.9969 0.0000
vt 0.3685 0.1987 0.0000
vt 0.6140 0.1417 0.0000
vt 0.6777 0.1417 0.0000
vt 0.7347 0.1987 0.0000
vt 0.6777 0.0575 0.0000
vt 0.7347 0.0005 0.0000
vt 0.6140 0.0575 0.0000
vt 0.3685 0.0005 0.0000
vt 0.3681 0.8811 0.0000
vt 0.4044 0.8811 0.0000
vt 0.4044 0.9449 0.0000
vt 0.3681 0.9449 0.0000
vt 0.6465 0.8146 0.0000
vt 0.6101 0.8146 0.0000
vt 0.6101 0.7303 0.0000
vt 0.6465 0.7303 0.0000
vt 0.6479 0.7303 0.0000
vt 0.6843 0.7303 0.0000
vt 0.6843 0.7941 0.0000
vt 0.6479 0.7941 0.0000
vt 0.6284 0.3844 0.0000
vt 0.6648 0.3844 0.0000
vt 0.6648 0.4686 0.0000
vt 0.6284 0.4686 0.0000
vt 0.4076 0.8811 0.0000
vt 0.4076 0.9449 0.0000
vt 0.6069 0.8146 0.0000
vt 0.6069 0.7303 0.0000
vt 0.6874 0.7303 0.0000
vt 0.6874 0.7941 0.0000
vt 0.6679 0.3844 0.0000
vt 0.6679 0.4686 0.0000
vt 0.4108 0.8811 0.0000
vt 0.4108 0.9449 0.0000
vt 0.6038 0.8146 0.0000
vt 0.6038 0.7303 0.0000
vt 0.6906 0.7303 0.0000
vt 0.6906 0.7941 0.0000
vt 0.6711 0.3844 0.0000
vt 0.6711 0.4686 0.0000
vt 0.4139 0.8811 0.0000
vt 0.4139 0.9449 0.0000
vt 0.6006 0.8146 0.0000
vt 0.6006 0.7303 0.0000
vt 0.6937 0.7303 0.0000
vt 0.6937 0.7941 0.0000
vt 0.6743 0.3844 0.0000
vt 0.6743 0.4686 0.0000
vt 0.5199 0.8811 0.0000
vt 0.5199 0.9449 0.0000
vt 0.4946 0.8146 0.0000
vt 0.4946 0.7303 0.0000
vt 0.7997 0.7303 0.0000
vt 0.7997 0.7941 0.0000
vt 0.7802 0.3844 0.0000
vt 0.7802 0.4686 0.0000
vt 0.5310 0.8811 0.0000
vt 0.5310 0.9449 0.0000
vt 0.4835 0.8146 0.0000
vt 0.4835 0.7303 0.0000
vt 0.8108 0.7303 0.0000
vt 0.8108 0.7941 0.0000
vt 0.7913 0.3844 0.0000
vt 0.7913 0.4686 0.0000
vt 0.5358 0.8811 0.0000
vt 0.5358 0.9449 0.0000
vt 0.4788 0.8146 0.0000
vt 0.4788 0.7303 0.0000
vt 0.8156 0.7303 0.0000
vt 0.8156 0.7941 0.0000
vt 0.7961 0.3844 0.0000
vt 0.7961 0.4686 0.0000
vt 0.5405 0.8811 0.0000
vt 0.5405 0.9449 0.0000
vt 0.4741 0.8146 0.0000
vt 0.4741 0.7303 0.0000
vt 0.8203 0.7303 0.0000
vt 0.8203 0.7941 0.0000
vt 0.8008 0.3844 0.0000
vt 0.8008 0.4686 0.0000
vt 0.6465 0.8811 0.0000
vt 0.6465 0.9449 0.0000
vt 0.3681 0.8146 0.0000
vt 0.3681 0.7303 0.0000
vt 0.9263 0.7303 0.0000
vt 0.9263 0.7941 0.0000
vt 0.9068 0.3844 0.0000
vt 0.9068 0.4686 0.0000
vt 0.5358 0.4210 0.0000
vt 0.5890 0.4210 0.0000
vt 0.6270 0.4590 0.0000
vt 0.5890 0.2988 0.0000
vt 0.6270 0.2608 0.0000
vt 0.5358 0.2988 0.0000
vt 0.3685 0.2000 0.0000
vt 0.4049 0.2000 0.0000
vt 0.4049 0.2533 0.0000
vt 0.3685 0.2533 0.0000
vt 0.8514 0.3830 0.0000
vt 0.8151 0.3830 0.0000
vt 0.8151 0.2608 0.0000
vt 0.8514 0.2608 0.0000
vt 0.8709 0.8692 0.0000
vt 0.8345 0.8692 0.0000
vt 0.8345 0.8160 0.0000
vt 0.8709 0.8160 0.0000
vt 0.0005 0.8442 0.0000
vt 0.0369 0.8442 0.0000
vt 0.0369 0.9664 0.0000
vt 0.0005 0.9664 0.0000
vt 0.4081 0.2000 0.0000
vt 0.4081 0.2533 0.0000
vt 0.8119 0.3830 0.0000
vt 0.8119 0.2608 0.0000
vt 0.8314 0.8692 0.0000
vt 0.8314 0.8160 0.0000
vt 0.0400 0.8442 0.0000
vt 0.0400 0.9664 0.0000
vt 0.4128 0.2000 0.0000
vt 0.4128 0.2533 0.0000
vt 0.8071 0.3830 0.0000
vt 0.8071 0.2608 0.0000
vt 0.8266 0.8692 0.0000
vt 0.8266 0.8160 0.0000
vt 0.0448 0.8442 0.0000
vt 0.0448 0.9664 0.0000
vt 0.4176 0.2000 0.0000
vt 0.4176 0.2533 0.0000
vt 0.8024 0.3830 0.0000
vt 0.8024 0.2608 0.0000
vt 0.8219 0.8692 0.0000
vt 0.8219 0.8160 0.0000
vt 0.0495 0.8442 0.0000
vt 0.0495 0.9664 0.0000
vt 0.5046 0.2000 0.0000
vt 0.5046 0.2533 0.0000
vt 0.7154 0.3830 0.0000
vt 0.7154 0.2608 0.0000
vt 0.7349 0.8692 0.0000
vt 0.7349 0.8160 0.0000
vt 0.1366 0.8442 0.0000
vt 0.1366 0.9664 0.0000
vt 0.5093 0.2000 0.0000
vt 0.5093 0.2533 0.0000
vt 0.7106 0.3830 0.0000
vt 0.7106 0.2608 0.0000
vt 0.7301 0.8692 0.0000
vt 0.7301 0.8160 0.0000
vt 0.1413 0.8442 0.0000
vt 0.1413 0.9664 0.0000
vt 0.5141 0.2000 0.0000
vt 0.5141 0.2533 0.0000
vt 0.7059 0.3830 0.0000
vt 0.7059 0.2608 0.0000
vt 0.7254 0.8692 0.0000
vt 0.7254 0.8160 0.0000
vt 0.1460 0.8442 0.0000
vt 0.1460 0.9664 0.0000
vt 0.5188 0.2000 0.0000
vt 0.5188 0.2533 0.0000
vt 0.7011 0.3830 0.0000
vt 0.7011 0.2608 0.0000
vt 0.7206 0.8692 0.0000
vt 0.7206 0.8160 0.0000
vt 0.1508 0.8442 0.0000
vt 0.1508 0.9664 0.0000
vt 0.5916 0.2000 0.0000
vt 0.5916 0.2533 0.0000
vt 0.6284 0.3830 0.0000
vt 0.6284 0.2608 0.0000
vt 0.6479 0.8692 0.0000
vt 0.6479 0.8160 0.0000
vt 0.2236 0.8442 0.0000
vt 0.2236 0.9664 0.0000
vt 0.0005 0.2608 0.0000
vt 0.3667 0.2608 0.0000
vt 0.3667 0.3901 0.0000
vt 0.3667 0.5193 0.0000
vt 0.0005 0.5193 0.0000
vt 0.0005 0.1297 0.0000
vt 0.0005 0.0005 0.0000
vt 0.3667 0.0005 0.0000
vt 0.3667 0.2590 0.0000
vt 0.0005 0.2590 0.0000
vt 0.9946 0.0005 0.0000
vt 0.9946 0.1987 0.0000
vt 0.9122 0.1391 0.0000
vt 0.9122 0.0601 0.0000
vt 0.7361 0.1987 0.0000
vt 0.8260 0.1391 0.0000
vt 0.7361 0.0005 0.0000
vt 0.8260 0.0601 0.0000
vt 0.7823 0.8906 0.0000
vt 0.7823 0.9697 0.0000
vt 0.7649 0.9697 0.0000
vt 0.7649 0.8906 0.0000
vt 0.9873 0.2703 0.0000
vt 0.9873 0.3565 0.0000
vt 0.9699 0.3565 0.0000
vt 0.9699 0.2703 0.0000
vt 0.2249 0.9328 0.0000
vt 0.2249 0.8537 0.0000
vt 0.2423 0.8537 0.0000
vt 0.2423 0.9328 0.0000
vt 0.2249 0.8163 0.0000
vt 0.2249 0.7302 0.0000
vt 0.2423 0.7302 0.0000
vt 0.2423 0.8163 0.0000
vt 0.7602 0.9697 0.0000
vt 0.7602 0.8906 0.0000
vt 0.9651 0.3565 0.0000
vt 0.9651 0.2703 0.0000
vt 0.2471 0.8537 0.0000
vt 0.2471 0.9328 0.0000
vt 0.2471 0.7302 0.0000
vt 0.2471 0.8163 0.0000
vt 0.7539 0.9697 0.0000
vt 0.7539 0.8906 0.0000
vt 0.9588 0.3565 0.0000
vt 0.9588 0.2703 0.0000
vt 0.2534 0.8537 0.0000
vt 0.2534 0.9328 0.0000
vt 0.2534 0.7302 0.0000
vt 0.2534 0.8163 0.0000
vt 0.7507 0.9697 0.0000
vt 0.7507 0.8906 0.0000
vt 0.9556 0.3565 0.0000
vt 0.9556 0.2703 0.0000
vt 0.2566 0.8537 0.0000
vt 0.2566 0.9328 0.0000
vt 0.2566 0.7302 0.0000
vt 0.2566 0.8163 0.0000
vt 0.7349 0.9792 0.0000
vt 0.7349 0.8811 0.0000
vt 0.9398 0.3660 0.0000
vt 0.9398 0.2608 0.0000
vt 0.2724 0.8442 0.0000
vt 0.2724 0.9423 0.0000
vt 0.2724 0.7207 0.0000
vt 0.2724 0.8258 0.0000
vt 0.6479 0.9792 0.0000
vt 0.6479 0.8811 0.0000
vt 0.8528 0.3660 0.0000
vt 0.8528 0.2608 0.0000
vt 0.3594 0.8442 0.0000
vt 0.3594 0.9423 0.0000
vt 0.3594 0.7207 0.0000
vt 0.3594 0.8258 0.0000
vt 0.9775 0.5211 0.0000
vt 0.9775 0.6192 0.0000
vt 0.8723 0.6192 0.0000
vt 0.8723 0.5211 0.0000
# 448 texture coords

g Box001
usemtl wire_184155229
s 16
f 1/1/1 2/2/1 3/3/1 4/4/1 
s 8
f 5/5/2 6/6/2 7/7/2 8/8/2 
s off
f 9/9/1 10/10/1 11/11/1 12/12/1 
f 10/10/1 13/13/1 14/14/1 11/11/1 
f 13/13/1 15/15/1 16/16/1 14/14/1 
f 15/15/1 9/9/1 12/12/1 16/16/1 
f 12/17/3 11/18/3 17/19/3 18/20/3 
f 11/21/4 14/22/4 19/23/4 17/24/4 
f 14/25/5 16/26/5 20/27/5 19/28/5 
f 16/29/2 12/30/2 18/31/2 20/32/2 
f 18/20/3 17/19/3 21/33/3 22/34/3 
f 17/24/4 19/23/4 23/35/4 21/36/4 
f 19/28/5 20/27/5 24/37/5 23/38/5 
f 20/32/2 18/31/2 22/39/2 24/40/2 
f 22/34/3 21/33/3 25/41/3 26/42/3 
f 21/36/4 23/35/4 27/43/4 25/44/4 
f 23/38/5 24/37/5 28/45/5 27/46/5 
f 24/40/2 22/39/2 26/47/2 28/48/2 
f 26/42/3 25/41/3 29/49/3 30/50/3 
f 25/44/4 27/43/4 31/51/4 29/52/4 
f 27/46/5 28/45/5 32/53/5 31/54/5 
f 28/48/2 26/47/2 30/55/2 32/56/2 
f 30/50/3 29/49/3 33/57/3 34/58/3 
f 29/52/4 31/51/4 35/59/4 33/60/4 
f 31/54/5 32/53/5 36/61/5 35/62/5 
f 32/56/2 30/55/2 34/63/2 36/64/2 
f 34/58/3 33/57/3 37/65/3 38/66/3 
f 33/60/4 35/59/4 39/67/4 37/68/4 
f 35/62/5 36/61/5 40/69/5 39/70/5 
f 36/64/2 34/63/2 38/71/2 40/72/2 
f 38/66/3 37/65/3 41/73/3 42/74/3 
f 37/68/4 39/67/4 43/75/4 41/76/4 
f 39/70/5 40/69/5 44/77/5 43/78/5 
f 40/72/2 38/71/2 42/79/2 44/80/2 
f 42/74/3 41/73/3 45/81/3 46/82/3 
f 41/76/4 43/75/4 47/83/4 45/84/4 
f 43/78/5 44/77/5 48/85/5 47/86/5 
f 44/80/2 42/79/2 46/87/2 48/88/2 
f 46/82/3 45/81/3 2/89/3 1/90/3 
f 45/84/4 47/83/4 3/91/4 2/92/4 
f 47/86/5 48/85/5 4/93/5 3/94/5 
f 48/88/2 46/87/2 1/95/2 4/96/2 
f 49/97/2 9/98/2 50/99/2 51/100/2 
f 9/98/2 15/101/2 52/102/2 50/99/2 
f 15/101/2 53/103/2 54/104/2 52/102/2 
f 53/103/2 49/97/2 51/100/2 54/104/2 
f 51/105/3 50/106/3 55/107/3 56/108/3 
f 50/109/1 52/110/1 57/111/1 55/112/1 
f 52/113/5 54/114/5 58/115/5 57/116/5 
f 54/117/6 51/118/6 56/119/6 58/120/6 
f 56/108/3 55/107/3 59/121/3 60/122/3 
f 55/112/1 57/111/1 61/123/1 59/124/1 
f 57/116/5 58/115/5 62/125/5 61/126/5 
f 58/120/6 56/119/6 60/127/6 62/128/6 
f 60/122/3 59/121/3 63/129/3 64/130/3 
f 59/124/1 61/123/1 65/131/1 63/132/1 
f 61/126/5 62/125/5 66/133/5 65/134/5 
f 62/128/6 60/127/6 64/135/6 66/136/6 
f 64/130/3 63/129/3 67/137/3 68/138/3 
f 63/132/1 65/131/1 69/139/1 67/140/1 
f 65/134/5 66/133/5 70/141/5 69/142/5 
f 66/136/6 64/135/6 68/143/6 70/144/6 
f 68/138/3 67/137/3 71/145/3 72/146/3 
f 67/140/1 69/139/1 73/147/1 71/148/1 
f 69/142/5 70/141/5 74/149/5 73/150/5 
f 70/144/6 68/143/6 72/151/6 74/152/6 
f 72/146/3 71/145/3 75/153/3 76/154/3 
f 71/148/1 73/147/1 77/155/1 75/156/1 
f 73/150/5 74/149/5 78/157/5 77/158/5 
f 74/152/6 72/151/6 76/159/6 78/160/6 
f 76/154/3 75/153/3 79/161/3 80/162/3 
f 75/156/1 77/155/1 81/163/1 79/164/1 
f 77/158/5 78/157/5 82/165/5 81/166/5 
f 78/160/6 76/159/6 80/167/6 82/168/6 
f 80/162/3 79/161/3 83/169/3 84/170/3 
f 79/164/1 81/163/1 85/171/1 83/172/1 
f 81/166/5 82/165/5 86/173/5 85/174/5 
f 82/168/6 80/167/6 84/175/6 86/176/6 
f 84/170/3 83/169/3 6/177/3 5/178/3 
f 83/172/1 85/171/1 7/179/1 6/180/1 
f 85/174/5 86/173/5 8/181/5 7/182/5 
f 86/176/6 84/175/6 5/183/6 8/184/6 
s 16
f 87/185/6 88/186/6 89/187/6 90/188/6 
s 32
f 91/189/4 92/190/4 93/191/4 94/192/4 
s 8
f 95/193/2 96/194/2 97/195/2 98/196/2 
s off
f 99/197/6 100/198/6 101/199/6 102/200/6 
f 102/200/6 101/199/6 103/201/6 104/202/6 
f 104/202/6 103/201/6 105/203/6 106/204/6 
f 106/204/6 105/203/6 100/198/6 99/197/6 
f 100/205/3 107/206/3 108/207/3 101/208/3 
f 101/209/4 108/210/4 109/211/4 103/212/4 
f 103/213/5 109/214/5 110/215/5 105/216/5 
f 105/217/2 110/218/2 107/219/2 100/220/2 
f 107/206/3 111/221/3 112/222/3 108/207/3 
f 108/210/4 112/223/4 113/224/4 109/211/4 
f 109/214/5 113/225/5 114/226/5 110/215/5 
f 110/218/2 114/227/2 111/228/2 107/219/2 
f 111/221/3 115/229/3 116/230/3 112/222/3 
f 112/223/4 116/231/4 117/232/4 113/224/4 
f 113/225/5 117/233/5 118/234/5 114/226/5 
f 114/227/2 118/235/2 115/236/2 111/228/2 
f 115/229/3 119/237/3 120/238/3 116/230/3 
f 116/231/4 120/239/4 121/240/4 117/232/4 
f 117/233/5 121/241/5 122/242/5 118/234/5 
f 118/235/2 122/243/2 119/244/2 115/236/2 
f 119/237/3 123/245/3 124/246/3 120/238/3 
f 120/239/4 124/247/4 125/248/4 121/240/4 
f 121/241/5 125/249/5 126/250/5 122/242/5 
f 122/243/2 126/251/2 123/252/2 119/244/2 
f 123/245/3 127/253/3 128/254/3 124/246/3 
f 124/247/4 128/255/4 129/256/4 125/248/4 
f 125/249/5 129/257/5 130/258/5 126/250/5 
f 126/251/2 130/259/2 127/260/2 123/252/2 
f 127/253/3 131/261/3 132/262/3 128/254/3 
f 128/255/4 132/263/4 133/264/4 129/256/4 
f 129/257/5 133/265/5 134/266/5 130/258/5 
f 130/259/2 134/267/2 131/268/2 127/260/2 
f 131/261/3 135/269/3 136/270/3 132/262/3 
f 132/263/4 136/271/4 137/272/4 133/264/4 
f 133/265/5 137/273/5 138/274/5 134/266/5 
f 134/267/2 138/275/2 135/276/2 131/268/2 
f 135/269/3 87/277/3 90/278/3 136/270/3 
f 136/271/4 90/279/4 89/280/4 137/272/4 
f 137/273/5 89/281/5 88/282/5 138/274/5 
f 138/275/2 88/283/2 87/284/2 135/276/2 
f 49/97/2 139/285/2 140/286/2 99/287/2 
f 99/287/2 140/286/2 141/288/2 106/289/2 
f 106/289/2 141/288/2 142/290/2 53/103/2 
f 53/103/2 142/290/2 139/285/2 49/97/2 
f 139/291/3 143/292/3 144/293/3 140/294/3 
f 140/295/6 144/296/6 145/297/6 141/298/6 
f 141/299/5 145/300/5 146/301/5 142/302/5 
f 142/303/1 146/304/1 143/305/1 139/306/1 
f 143/292/3 147/307/3 148/308/3 144/293/3 
f 144/296/6 148/309/6 149/310/6 145/297/6 
f 145/300/5 149/311/5 150/312/5 146/301/5 
f 146/304/1 150/313/1 147/314/1 143/305/1 
f 147/307/3 151/315/3 152/316/3 148/308/3 
f 148/309/6 152/317/6 153/318/6 149/310/6 
f 149/311/5 153/319/5 154/320/5 150/312/5 
f 150/313/1 154/321/1 151/322/1 147/314/1 
f 151/315/3 155/323/3 156/324/3 152/316/3 
f 152/317/6 156/325/6 157/326/6 153/318/6 
f 153/319/5 157/327/5 158/328/5 154/320/5 
f 154/321/1 158/329/1 155/330/1 151/322/1 
f 155/323/3 159/331/3 160/332/3 156/324/3 
f 156/325/6 160/333/6 161/334/6 157/326/6 
f 157/327/5 161/335/5 162/336/5 158/328/5 
f 158/329/1 162/337/1 159/338/1 155/330/1 
f 159/331/3 163/339/3 164/340/3 160/332/3 
f 160/333/6 164/341/6 165/342/6 161/334/6 
f 161/335/5 165/343/5 166/344/5 162/336/5 
f 162/337/1 166/345/1 163/346/1 159/338/1 
f 163/339/3 167/347/3 168/348/3 164/340/3 
f 164/341/6 168/349/6 169/350/6 165/342/6 
f 165/343/5 169/351/5 170/352/5 166/344/5 
f 166/345/1 170/353/1 167/354/1 163/346/1 
f 167/347/3 171/355/3 172/356/3 168/348/3 
f 168/349/6 172/357/6 173/358/6 169/350/6 
f 169/351/5 173/359/5 174/360/5 170/352/5 
f 170/353/1 174/361/1 171/362/1 167/354/1 
f 171/355/3 95/363/3 98/364/3 172/356/3 
f 172/357/6 98/365/6 97/366/6 173/358/6 
f 173/359/5 97/367/5 96/368/5 174/360/5 
f 174/361/1 96/369/1 95/370/1 171/362/1 
s 2
f 10/371/3 9/372/3 49/373/3 99/374/3 102/375/3 
s 4
f 53/376/5 15/377/5 13/378/5 104/379/5 106/380/5 
s off
f 13/381/4 10/382/4 175/383/4 176/384/4 
f 10/382/7 102/385/7 177/386/7 175/383/7 
f 102/385/8 104/387/8 178/388/8 177/386/8 
f 104/387/4 13/381/4 176/384/4 178/388/4 
f 176/389/1 175/390/1 179/391/1 180/392/1 
f 175/393/3 177/394/3 181/395/3 179/396/3 
f 177/397/6 178/398/6 182/399/6 181/400/6 
f 178/401/5 176/402/5 180/403/5 182/404/5 
f 180/392/1 179/391/1 183/405/1 184/406/1 
f 179/396/3 181/395/3 185/407/3 183/408/3 
f 181/400/6 182/399/6 186/409/6 185/410/6 
f 182/404/5 180/403/5 184/411/5 186/412/5 
f 184/406/1 183/405/1 187/413/1 188/414/1 
f 183/408/3 185/407/3 189/415/3 187/416/3 
f 185/410/6 186/409/6 190/417/6 189/418/6 
f 186/412/5 184/411/5 188/419/5 190/420/5 
f 188/414/1 187/413/1 191/421/1 192/422/1 
f 187/416/3 189/415/3 193/423/3 191/424/3 
f 189/418/6 190/417/6 194/425/6 193/426/6 
f 190/420/5 188/419/5 192/427/5 194/428/5 
f 192/422/9 191/421/9 195/429/9 196/430/9 
f 191/424/10 193/423/10 197/431/10 195/432/10 
f 193/426/11 194/425/11 198/433/11 197/434/11 
f 194/428/12 192/427/12 196/435/12 198/436/12 
f 196/430/1 195/429/1 199/437/1 200/438/1 
f 195/432/3 197/431/3 201/439/3 199/440/3 
f 197/434/6 198/433/6 202/441/6 201/442/6 
f 198/436/5 196/435/5 200/443/5 202/444/5 
f 200/445/8 199/446/8 94/192/8 93/191/8 
f 199/446/4 201/447/4 91/189/4 94/192/4 
f 201/447/4 202/448/4 92/190/4 91/189/4 
f 202/448/4 200/445/4 93/191/4 92/190/4 
# 199 polygons

